HIERARCHY
ROOT Hips
{
    OFFSET 0.000000 0.000000 0.000000
    CHANNELS 6 Xposition Yposition Zposition Zrotation Xrotation Yrotation
    JOINT Spine
    {
        OFFSET -0.000002 7.483729 0.000023
        CHANNELS 3 Zrotation Xrotation Yrotation
        JOINT Spine1
        {
            OFFSET -0.000001 20.538181 0.000012
            CHANNELS 3 Zrotation Xrotation Yrotation
            JOINT Neck
            {
                OFFSET -0.000001 22.426348 0.000008
                CHANNELS 3 Zrotation Xrotation Yrotation
                JOINT Head
                {
                    OFFSET -0.000001 14.412777 1.902208
                    CHANNELS 3 Zrotation Xrotation Yrotation
                    End Site
                    {
                        OFFSET 0.000000 19.022141 0.000000
                    }
                }
            }
            JOINT LeftShoulder
            {
                OFFSET 3.797833 16.121204 -0.677310
                CHANNELS 3 Zrotation Xrotation Yrotation
                JOINT LeftArm
                {
                    OFFSET 11.576587 -0.000001 -0.000008
                    CHANNELS 3 Zrotation Xrotation Yrotation
                    JOINT LeftForeArm
                    {
                        OFFSET 29.906391 -0.000003 -0.000009
                        CHANNELS 3 Zrotation Xrotation Yrotation
                        JOINT LeftHand
                        {
                            OFFSET 24.318314 0.000003 -0.000010
                            CHANNELS 3 Zrotation Xrotation Yrotation
                            JOINT LeftHandThumb1
                            {
                                OFFSET 1.987810 -2.258878 3.162430
                                CHANNELS 3 Zrotation Xrotation Yrotation
                                JOINT LeftHandThumb2
                                {
                                    OFFSET 3.002292 -0.000003 -0.000003
                                    CHANNELS 3 Zrotation Xrotation Yrotation
                                    JOINT LeftHandThumb3
                                    {
                                        OFFSET 2.566088 0.000021 0.000011
                                        CHANNELS 3 Zrotation Xrotation Yrotation
                                        End Site
                                        {
                                            OFFSET 2.440626 0.000000 0.000000
                                        }
                                    }
                                }
                            }
                            JOINT LeftHandIndex1
                            {
                                OFFSET 8.131960 -0.000004 3.162409
                                CHANNELS 3 Zrotation Xrotation Yrotation
                                JOINT LeftHandIndex2
                                {
                                    OFFSET 4.517760 0.000007 0.000014
                                    CHANNELS 3 Zrotation Xrotation Yrotation
                                    JOINT LeftHandIndex3
                                    {
                                        OFFSET 2.258877 0.000003 0.000007
                                        CHANNELS 3 Zrotation Xrotation Yrotation
                                        End Site
                                        {
                                            OFFSET 2.148437 0.000000 0.000000
                                        }
                                    }
                                }
                            }
                            JOINT LeftHandMiddle1
                            {
                                OFFSET 8.131962 -0.000003 1.048103
                                CHANNELS 3 Zrotation Xrotation Yrotation
                                JOINT LeftHandMiddle2
                                {
                                    OFFSET 4.969532 -0.000002 -0.000011
                                    CHANNELS 3 Zrotation Xrotation Yrotation
                                    JOINT LeftHandMiddle3
                                    {
                                        OFFSET 2.710654 -0.000004 -0.000019
                                        CHANNELS 3 Zrotation Xrotation Yrotation
                                        End Site
                                        {
                                            OFFSET 2.578118 0.000000 0.000000
                                        }
                                    }
                                }
                            }
                            JOINT LeftHandRing1
                            {
                                OFFSET 7.680186 -0.000004 -1.048142
                                CHANNELS 3 Zrotation Xrotation Yrotation
                                JOINT LeftHandRing2
                                {
                                    OFFSET 4.517759 0.000003 0.000015
                                    CHANNELS 3 Zrotation Xrotation Yrotation
                                    JOINT LeftHandRing3
                                    {
                                        OFFSET 2.258877 0.000001 0.000008
                                        CHANNELS 3 Zrotation Xrotation Yrotation
                                        End Site
                                        {
                                            OFFSET 2.148437 0.000000 0.000000
                                        }
                                    }
                                }
                            }
                            JOINT LeftHandPinky1
                            {
                                OFFSET 7.228410 0.000002 -3.162422
                                CHANNELS 3 Zrotation Xrotation Yrotation
                                JOINT LeftHandPinky2
                                {
                                    OFFSET 3.614206 0.000000 0.000022
                                    CHANNELS 3 Zrotation Xrotation Yrotation
                                    JOINT LeftHandPinky3
                                    {
                                        OFFSET 1.807101 -0.000001 -0.000013
                                        CHANNELS 3 Zrotation Xrotation Yrotation
                                        End Site
                                        {
                                            OFFSET 1.718745 0.000000 0.000000
                                        }
                                    }
                                }
                            }
                        }
                    }
                }
            }
            JOINT RightShoulder
            {
                OFFSET -3.797833 16.121193 -0.677283
                CHANNELS 3 Zrotation Xrotation Yrotation
                JOINT RightArm
                {
                    OFFSET -11.576583 0.000005 0.000008
                    CHANNELS 3 Zrotation Xrotation Yrotation
                    JOINT RightForeArm
                    {
                        OFFSET -29.906401 0.000003 0.000009
                        CHANNELS 3 Zrotation Xrotation Yrotation
                        JOINT RightHand
                        {
                            OFFSET -24.318304 -0.000010 0.000009
                            CHANNELS 3 Zrotation Xrotation Yrotation
                            JOINT RightHandThumb1
                            {
                                OFFSET -1.987830 -2.258883 3.162432
                                CHANNELS 3 Zrotation Xrotation Yrotation
                                JOINT RightHandThumb2
                                {
                                    OFFSET -3.002275 0.000013 -0.000003
                                    CHANNELS 3 Zrotation Xrotation Yrotation
                                    JOINT RightHandThumb3
                                    {
                                        OFFSET -2.566105 -0.000001 0.000004
                                        CHANNELS 3 Zrotation Xrotation Yrotation
                                        End Site
                                        {
                                            OFFSET -2.440626 0.000000 0.000000
                                        }
                                    }
                                }
                            }
                            JOINT RightHandIndex1
                            {
                                OFFSET -8.131939 0.000001 3.162429
                                CHANNELS 3 Zrotation Xrotation Yrotation
                                JOINT RightHandIndex2
                                {
                                    OFFSET -4.517749 0.000001 0.000001
                                    CHANNELS 3 Zrotation Xrotation Yrotation
                                    JOINT RightHandIndex3
                                    {
                                        OFFSET -2.258898 -0.000001 0.000003
                                        CHANNELS 3 Zrotation Xrotation Yrotation
                                        End Site
                                        {
                                            OFFSET -2.148437 0.000000 0.000000
                                        }
                                    }
                                }
                            }
                            JOINT RightHandMiddle1
                            {
                                OFFSET -8.131984 -0.000008 1.048120
                                CHANNELS 3 Zrotation Xrotation Yrotation
                                JOINT RightHandMiddle2
                                {
                                    OFFSET -4.969529 0.000001 0.000001
                                    CHANNELS 3 Zrotation Xrotation Yrotation
                                    JOINT RightHandMiddle3
                                    {
                                        OFFSET -2.710631 0.000002 -0.000002
                                        CHANNELS 3 Zrotation Xrotation Yrotation
                                        End Site
                                        {
                                            OFFSET -2.578118 0.000000 0.000000
                                        }
                                    }
                                }
                            }
                            JOINT RightHandRing1
                            {
                                OFFSET -7.680209 -0.000005 -1.048118
                                CHANNELS 3 Zrotation Xrotation Yrotation
                                JOINT RightHandRing2
                                {
                                    OFFSET -4.517749 0.000000 0.000001
                                    CHANNELS 3 Zrotation Xrotation Yrotation
                                    JOINT RightHandRing3
                                    {
                                        OFFSET -2.258898 -0.000002 0.000003
                                        CHANNELS 3 Zrotation Xrotation Yrotation
                                        End Site
                                        {
                                            OFFSET -2.148437 0.000000 0.000000
                                        }
                                    }
                                }
                            }
                            JOINT RightHandPinky1
                            {
                                OFFSET -7.228427 0.000000 -3.162426
                                CHANNELS 3 Zrotation Xrotation Yrotation
                                JOINT RightHandPinky2
                                {
                                    OFFSET -3.614190 0.000001 0.000000
                                    CHANNELS 3 Zrotation Xrotation Yrotation
                                    JOINT RightHandPinky3
                                    {
                                        OFFSET -1.807119 -0.000002 0.000002
                                        CHANNELS 3 Zrotation Xrotation Yrotation
                                        End Site
                                        {
                                            OFFSET -1.718745 0.000000 0.000000
                                        }
                                    }
                                }
                            }
                        }
                    }
                }
            }
        }
    }
    JOINT LeftUpLeg
    {
        OFFSET 9.511070 0.000004 -0.000021
        CHANNELS 3 Zrotation Xrotation Yrotation
        JOINT LeftLeg
        {
            OFFSET 0.000002 -43.875633 -0.000018
            CHANNELS 3 Zrotation Xrotation Yrotation
            JOINT LeftFoot
            {
                OFFSET 0.000001 -35.354156 -0.000004
                CHANNELS 3 Zrotation Xrotation Yrotation
                JOINT LeftToeBase
                {
                    OFFSET 0.000005 -6.182192 14.266581
                    CHANNELS 3 Zrotation Xrotation Yrotation
                    End Site
                    {
                        OFFSET 0.000000 0.000000 3.804428
                    }
                }
            }
        }
    }
    JOINT RightUpLeg
    {
        OFFSET -9.511070 -0.000004 0.000021
        CHANNELS 3 Zrotation Xrotation Yrotation
        JOINT RightLeg
        {
            OFFSET 0.000000 -43.875645 0.000015
            CHANNELS 3 Zrotation Xrotation Yrotation
            JOINT RightFoot
            {
                OFFSET -0.000001 -35.354156 -0.000004
                CHANNELS 3 Zrotation Xrotation Yrotation
                JOINT RightToeBase
                {
                    OFFSET 0.000001 -6.182192 14.266604
                    CHANNELS 3 Zrotation Xrotation Yrotation
                    End Site
                    {
                        OFFSET 0.000000 0.000000 3.804428
                    }
                }
            }
        }
    }
}
MOTION
Frames:    4
Frame Time:    0.002778
14.750990    91.361771    602.708679    0.536960    -7.504231    -167.427612    -0.181272    6.190906    -4.213077    -0.906359    6.190167    -4.134886    7.161438    9.996624    -19.264318    7.161439    9.996620    -19.264322    2.425076    -1.707395    1.738897    -60.596661    6.730171    -15.179902    -57.362579    21.540548    -88.200607    -1.480106    -0.854861    9.800343    47.448235    38.866440    -34.355061    -35.000008    -0.000004    -0.000003    -0.000000    0.000000    -0.000000    -0.000000    9.999999    -0.000000    -0.000000    0.000000    -0.000000    -0.000000    0.000000    -0.000000    -0.000000    0.000000    -0.000000    -0.000000    0.000000    -0.000000    -0.000000    0.000000    -0.000000    -0.000000    0.000000    -0.000000    -0.000000    0.000000    -0.000000    -0.000000    0.000000    -0.000000    0.000000    -9.999998    0.000000    -0.000000    0.000000    -0.000000    -0.000000    0.000000    -0.000000    -8.836832    4.272448    -1.119030    71.858269    10.394003    -7.358321    27.937922    13.349752    51.296642    -50.384762    15.650926    -12.783710    -47.448223    38.866428    34.355038    35.000000    0.000000    -0.000000    -0.000000    0.000000    -0.000000    -0.000004    10.000001    0.000002    -0.000000    0.000000    -0.000000    -0.000000    0.000000    -0.000000    -0.000000    0.000000    -0.000000    -0.000000    0.000000    -0.000000    -0.000000    0.000000    -0.000000    -0.000000    0.000000    -0.000000    -0.000000    0.000000    -0.000000    -0.000000    0.000000    -0.000000    0.000000    -9.999998    0.000002    -0.000000    0.000000    -0.000000    -0.000000    0.000000    -0.000000    14.183490    -16.882206    -0.015098    -0.000002    22.235052    0.000001    -15.019367    -14.726228    10.297807    0.000000    -1.185611    0.000001    -13.866404    -27.269186    -2.708547    0.000001    36.551224    -0.000002    10.743809    -12.625044    -13.101735    0.000000    -3.397631    0.000000    
14.736234    91.356209    602.683838    0.517338    -7.512071    -167.552246    -0.177462    6.197825    -4.321368    -0.887310    6.197118    -4.244735    7.186931    10.073924    -19.245762    7.186931    10.073923    -19.245762    2.461610    -1.686762    1.780048    -60.673771    6.698634    -14.991058    -57.364136    21.575445    -88.242393    -1.492855    -0.855663    9.746966    47.448212    38.866428    -34.355019    -34.999992    -0.000001    -0.000002    -0.000000    0.000000    -0.000000    0.000002    9.999993    -0.000004    -0.000000    0.000000    -0.000000    -0.000000    0.000000    -0.000000    -0.000000    0.000000    -0.000000    -0.000000    0.000000    -0.000000    -0.000000    0.000000    -0.000000    -0.000000    0.000000    -0.000000    -0.000000    0.000000    -0.000000    -0.000000    0.000000    -0.000000    0.000005    -10.000001    -0.000003    -0.000000    0.000000    -0.000000    -0.000000    0.000000    -0.000000    -8.813098    4.245493    -1.161388    72.123634    10.144990    -7.469610    27.941074    12.726514    50.582981    -50.618145    15.605985    -12.648316    -47.448208    38.866428    34.355030    35.000000    -0.000002    0.000006    -0.000000    0.000000    -0.000000    -0.000000    10.000003    0.000001    -0.000000    0.000000    -0.000000    -0.000000    0.000000    -0.000000    -0.000000    0.000000    -0.000000    -0.000000    0.000000    -0.000000    -0.000000    0.000000    -0.000000    -0.000000    0.000000    -0.000000    -0.000000    0.000000    -0.000000    -0.000000    0.000000    -0.000000    -0.000004    -10.000001    -0.000002    -0.000000    0.000000    -0.000000    -0.000000    0.000000    -0.000000    14.171214    -16.890354    -0.004521    0.000002    22.350479    -0.000001    -14.963838    -14.724633    10.360724    0.000000    -1.174403    0.000000    -13.866050    -27.300816    -2.701280    -0.000001    36.566738    0.000001    10.719870    -12.626064    -13.008515    0.000000    -3.403622    0.000001    
14.720905    91.349663    602.661438    0.496468    -7.518404    -167.688110    -0.174548    6.208253    -4.434587    -0.872740    6.207568    -4.359086    7.215675    10.156847    -19.242023    7.215675    10.156850    -19.242022    2.489427    -1.656885    1.826825    -60.746925    6.679117    -14.803994    -57.374168    21.614674    -88.289925    -1.510731    -0.857303    9.689798    47.448219    38.866432    -34.355038    -35.000008    -0.000010    -0.000003    -0.000000    0.000000    -0.000000    0.000002    9.999995    -0.000004    -0.000000    0.000000    -0.000000    -0.000000    0.000000    -0.000000    -0.000000    0.000000    -0.000000    -0.000000    0.000000    -0.000000    -0.000000    0.000000    -0.000000    -0.000000    0.000000    -0.000000    -0.000000    0.000000    -0.000000    -0.000000    0.000000    -0.000000    0.000001    -10.000002    -0.000007    -0.000000    0.000000    -0.000000    -0.000000    0.000000    -0.000000    -8.810402    4.201702    -1.205034    72.397469    9.823471    -7.572535    28.057274    12.052637    49.895630    -50.896832    15.513681    -12.461231    -47.448208    38.866417    34.355030    34.999996    0.000001    0.000002    -0.000000    0.000000    -0.000000    -0.000003    10.000000    0.000000    -0.000000    0.000000    -0.000000    -0.000000    0.000000    -0.000000    -0.000000    0.000000    -0.000000    -0.000000    0.000000    -0.000000    -0.000000    0.000000    -0.000000    -0.000000    0.000000    -0.000000    -0.000000    0.000000    -0.000000    -0.000000    0.000000    -0.000000    -0.000000    -10.000001    -0.000002    -0.000000    0.000000    -0.000000    -0.000000    0.000000    -0.000000    14.158161    -16.899027    0.010790    0.000000    22.474211    -0.000001    -14.910729    -14.725399    10.426592    0.000000    -1.169854    -0.000001    -13.868599    -27.338547    -2.699263    0.000001    36.588428    -0.000002    10.698378    -12.628011    -12.900038    -0.000000    -3.405762    -0.000000    
14.702585    91.340874    602.637146    0.473112    -7.521583    -167.828262    -0.171338    6.216957    -4.540774    -0.856690    6.216295    -4.466557    7.235753    10.233283    -19.233526    7.235751    10.233285    -19.233524    2.526258    -1.616926    1.879530    -60.810696    6.654996    -14.616692    -57.499149    21.699154    -88.299873    -1.442972    -0.849366    9.771199    47.448200    38.866421    -34.355019    -35.000008    0.000005    -0.000004    -0.000000    0.000000    -0.000000    -0.000002    9.999992    0.000004    -0.000000    0.000000    -0.000000    -0.000000    0.000000    -0.000000    -0.000000    0.000000    -0.000000    -0.000000    0.000000    -0.000000    -0.000000    0.000000    -0.000000    -0.000000    0.000000    -0.000000    -0.000000    0.000000    -0.000000    -0.000000    0.000000    -0.000000    -0.000001    -10.000001    0.000003    -0.000000    0.000000    -0.000000    -0.000000    0.000000    -0.000000    -8.808410    4.168319    -1.234149    72.643654    9.495645    -7.673296    28.281494    11.251555    49.201412    -51.206081    15.432512    -12.273732    -47.448212    38.866428    34.355038    34.999996    -0.000008    -0.000001    -0.000000    0.000000    -0.000000    -0.000000    10.000001    0.000002    -0.000000    0.000000    -0.000000    -0.000000    0.000000    -0.000000    -0.000000    0.000000    -0.000000    -0.000000    0.000000    -0.000000    -0.000000    0.000000    -0.000000    -0.000000    0.000000    -0.000000    -0.000000    0.000000    -0.000000    -0.000000    0.000000    -0.000000    -0.000004    -9.999999    -0.000001    -0.000000    0.000000    -0.000000    -0.000000    0.000000    -0.000000    14.140002    -16.905514    0.017695    0.000000    22.604290    -0.000000    -14.843522    -14.729861    10.497842    0.000000    -1.159916    -0.000003    -13.877940    -27.380547    -2.707508    0.000000    36.625187    -0.000001    10.678751    -12.627697    -12.775453    0.000000    -3.405183    0.000000    
